<svg width="16" height="16" viewBox="0 0 16 16" fill="none" xmlns="http://www.w3.org/2000/svg">
    <path d="M14.0244 5.57227C14.1953 5.39453 14.291 5.18262 14.291 4.92969C14.291 4.41016 13.8809 4 13.375 4C13.1152 4 12.876 4.10254 12.6982 4.28711L8.13867 8.96973L3.59277 4.28711C3.41504 4.10254 3.16895 4 2.92285 4C2.41016 4 2 4.41016 2 4.92969C2 5.18262 2.08887 5.40137 2.2666 5.57226L7.40723 10.8291C7.62598 11.0547 7.86523 11.1572 8.14551 11.1641C8.42578 11.1641 8.66504 11.0547 8.88379 10.8291L14.0244 5.57227Z" fill="currentColor"/>
</svg>
